<svg xmlns="http://www.w3.org/2000/svg" width="550" height="250" viewBox="0 0 550 250">
  <path id="zen-logo" d="M.3,219.635,127.079,11.13H57.259l6.015-41.495H225.628L101.939,169.446h78.172l-8.535,50.189Zm253.71-70.348a20.674,20.674,0,0,0,1.845,13.833,32.563,32.563,0,0,0,9.711,11.954,31.213,31.213,0,0,0,14.242,6.128,20.973,20.973,0,0,0,15.516-3.847q1.942-1.187,4.073-2.369a31.793,31.793,0,0,0,4.462-3.061,51.118,51.118,0,0,0,4.947-4.644,78.871,78.871,0,0,0,5.724-6.914l35.693,19.785a128.793,128.793,0,0,1-23.376,22.726,86.843,86.843,0,0,1-28.8,13.636,24.6,24.6,0,0,1-9.991,2.446q-5.724.3-11.928.3a124.694,124.694,0,0,1-35.692-4.545A75,75,0,0,1,212.885,199.5a69.191,69.191,0,0,1-15.807-25,71.409,71.409,0,0,1-3.388-33.509,125.423,125.423,0,0,1,8.923-35.174,99.7,99.7,0,0,1,18.72-29.541,86.473,86.473,0,0,1,28.318-20.253,90.036,90.036,0,0,1,37.532-7.507A105.9,105.9,0,0,1,305.126,50a96.184,96.184,0,0,1,16.1,4.149,73.426,73.426,0,0,1,13.487,6.326,51.621,51.621,0,0,1,10.088,7.8A74.743,74.743,0,0,1,361.87,94.168a86.939,86.939,0,0,1,4.855,30.035v16.79H254.01Zm57.806-36.356a39.868,39.868,0,0,0-1.165-9.09,35.383,35.383,0,0,0-3.685-9.387,26.6,26.6,0,0,0-6.787-7.8A23.759,23.759,0,0,0,289.9,82.11a28.246,28.246,0,0,0-13,2.863,33.849,33.849,0,0,0-9.711,7.31,40.7,40.7,0,0,0-6.69,9.893,42.183,42.183,0,0,0-3.588,10.772Zm226.752-49.8A35.5,35.5,0,0,1,547.2,77.658a69.08,69.08,0,0,1,3,17.785,123.123,123.123,0,0,1-.707,18.873q-1.079,9.486-2.422,17.785l-14.135,86.55H476.295l11.448-86.528A108.708,108.708,0,0,0,489.3,117.6a24.217,24.217,0,0,0-1.84-10.888,14.163,14.163,0,0,0-6.69-6.815,29.1,29.1,0,0,0-13-2.4,39.16,39.16,0,0,0-16,2.748,23.055,23.055,0,0,0-9.894,8.535,47.581,47.581,0,0,0-6.015,14.427q-2.228,8.695-4.559,20.549l-11.443,74.893H363.208L377.4,100.285A160.345,160.345,0,0,1,388.731,82.2a79.773,79.773,0,0,1,13.487-14.526A58.968,58.968,0,0,1,418.8,57.994a57.544,57.544,0,0,1,20.851-3.556l-2.908,28.656q3.1-3.16,7.272-6.815t8.34-7.112q4.17-3.457,8.243-6.6t7.175-5.336a51.774,51.774,0,0,1,13.093-6.518,49.915,49.915,0,0,1,15.419-2.2,64.047,64.047,0,0,1,23.279,4.05,76.642,76.642,0,0,1,19,10.569Z" transform="translate(-0.3 30.365)" fill="#ffff64"/>
</svg>
