<svg xmlns="http://www.w3.org/2000/svg" width="101.95" height="45.489" viewBox="0 0 101.95 45.489">
  <path id="zen-logo" d="M.3,15.123,23.8-22.815H10.858l1.115-7.55H42.067L19.14,5.991H33.63l-1.582,9.132Zm47.028-12.8a3.7,3.7,0,0,0,.342,2.517,5.948,5.948,0,0,0,1.8,2.175A5.841,5.841,0,0,0,52.11,8.13a3.943,3.943,0,0,0,2.876-.7q.36-.216.755-.431a5.9,5.9,0,0,0,.827-.557,9.406,9.406,0,0,0,.917-.845,14.417,14.417,0,0,0,1.061-1.258l6.616,3.6a23.678,23.678,0,0,1-4.333,4.135,16.232,16.232,0,0,1-5.339,2.481A4.629,4.629,0,0,1,53.638,15q-1.061.054-2.211.054a23.521,23.521,0,0,1-6.616-.827,13.979,13.979,0,0,1-5.106-2.768,12.561,12.561,0,0,1-2.93-4.548A12.768,12.768,0,0,1,36.147.814a22.482,22.482,0,0,1,1.654-6.4,18.1,18.1,0,0,1,3.47-5.375,16.026,16.026,0,0,1,5.249-3.685,16.959,16.959,0,0,1,6.957-1.366,19.987,19.987,0,0,1,3.326.27,18.1,18.1,0,0,1,2.984.755,13.728,13.728,0,0,1,2.5,1.151,9.549,9.549,0,0,1,1.87,1.42,13.582,13.582,0,0,1,3.164,4.71,15.555,15.555,0,0,1,.9,5.465V.814H47.328ZM58.043-4.292a7.128,7.128,0,0,0-.216-1.654,6.368,6.368,0,0,0-.683-1.708,4.867,4.867,0,0,0-1.258-1.42A4.445,4.445,0,0,0,53.98-9.9a5.318,5.318,0,0,0-2.409.521,6.265,6.265,0,0,0-1.8,1.33,7.4,7.4,0,0,0-1.24,1.8,7.579,7.579,0,0,0-.665,1.96Zm42.031-9.061a6.436,6.436,0,0,1,1.6,2.643,12.36,12.36,0,0,1,.557,3.236A21.993,21.993,0,0,1,102.1-4.04q-.2,1.726-.449,3.236L99.031,14.944h-10.5L90.653-.8a19.428,19.428,0,0,0,.288-2.643A4.334,4.334,0,0,0,90.6-5.424a2.6,2.6,0,0,0-1.24-1.24A5.482,5.482,0,0,0,86.95-7.1a7.38,7.38,0,0,0-2.966.5A4.252,4.252,0,0,0,82.15-5.047a8.571,8.571,0,0,0-1.115,2.625q-.413,1.582-.845,3.739L78.069,14.944h-10.5L70.2-6.593a29.1,29.1,0,0,1,2.1-3.29,14.623,14.623,0,0,1,2.5-2.643,10.98,10.98,0,0,1,3.074-1.762,10.847,10.847,0,0,1,3.865-.647L81.2-9.721q.575-.575,1.348-1.24t1.546-1.294q.773-.629,1.528-1.2t1.33-.971a9.67,9.67,0,0,1,2.427-1.186,9.414,9.414,0,0,1,2.858-.4,12.072,12.072,0,0,1,4.315.737A14.286,14.286,0,0,1,100.073-13.352Z" transform="translate(-0.3 30.366)"/>
</svg>
